<svg width="16" height="12" viewBox="0 0 16 12" fill="none" xmlns="http://www.w3.org/2000/svg">
<path d="M9.33326 1.70663C10.5838 2.00724 11.697 2.71962 12.4938 3.72925C13.2906 4.73888 13.7248 5.98711 13.7266 7.2733V8.54663M2.27326 8.54663V7.2733C2.27148 5.9862 2.70435 4.7362 3.50174 3.72585C4.29913 2.71551 5.41431 2.004 6.66659 1.70663" stroke="#3B3B3B" stroke-width="1.5" stroke-miterlimit="10"/>
<path d="M13.7267 8.54668H2.27333C1.57009 8.54668 1 9.11677 1 9.82001C1 10.5233 1.57009 11.0933 2.27333 11.0933H13.7267C14.4299 11.0933 15 10.5233 15 9.82001C15 9.11677 14.4299 8.54668 13.7267 8.54668Z" stroke="#3B3B3B" stroke-width="1.5" stroke-miterlimit="10"/>
<path d="M9.90672 8.54665H6.09338L6.66588 1.64056C6.70026 1.22577 7.04694 0.906647 7.46314 0.906647H8.53696C8.95316 0.906647 9.29984 1.22577 9.33422 1.64056L9.90672 8.54665Z" stroke="#3B3B3B" stroke-width="1.5" stroke-miterlimit="10"/>
</svg>
