<svg width="12" height="13" viewBox="0 0 12 13" fill="none" xmlns="http://www.w3.org/2000/svg">
<path d="M11.4998 2.5L0.499756 2.50001" stroke="white" stroke-linecap="round" stroke-linejoin="round"/>
<path d="M4.5 5.5V9.5" stroke="white" stroke-linecap="round" stroke-linejoin="round"/>
<path d="M7.5 5.5V9.5" stroke="white" stroke-linecap="round" stroke-linejoin="round"/>
<path d="M10.5 2.5V12C10.5 12.1326 10.4473 12.2598 10.3536 12.3536C10.2598 12.4473 10.1326 12.5 10 12.5H2C1.86739 12.5 1.74021 12.4473 1.64645 12.3536C1.55268 12.2598 1.5 12.1326 1.5 12V2.5" stroke="white" stroke-linecap="round" stroke-linejoin="round"/>
<path d="M8.5 2.5V1.5C8.5 1.23478 8.39464 0.98043 8.20711 0.792893C8.01957 0.605357 7.76522 0.5 7.5 0.5H4.5C4.23478 0.5 3.98043 0.605357 3.79289 0.792893C3.60536 0.98043 3.5 1.23478 3.5 1.5V2.5" stroke="white" stroke-linecap="round" stroke-linejoin="round"/>
</svg>
