<svg width="16" height="16" viewBox="0 0 16 16" fill="none" xmlns="http://www.w3.org/2000/svg">
<path d="M5.24112 14.875H1.75C1.58424 14.875 1.42527 14.8092 1.30806 14.6919C1.19085 14.5747 1.125 14.4158 1.125 14.25V10.7589C1.125 10.6768 1.14117 10.5955 1.17258 10.5197C1.20398 10.4439 1.25002 10.375 1.30806 10.3169L10.6831 0.941946C10.8003 0.824736 10.9592 0.758888 11.125 0.758888C11.2908 0.758888 11.4497 0.824736 11.5669 0.941946L15.0581 4.43306C15.1753 4.55027 15.2411 4.70924 15.2411 4.875C15.2411 5.04076 15.1753 5.19974 15.0581 5.31695L5.68306 14.6919C5.62502 14.75 5.55612 14.796 5.48029 14.8274C5.40447 14.8588 5.32319 14.875 5.24112 14.875Z" stroke="#3B3B3B" stroke-width="1.5" stroke-linecap="round" stroke-linejoin="round"/>
<path d="M8.625 3L13 7.375" stroke="#3B3B3B" stroke-width="1.5" stroke-linecap="round" stroke-linejoin="round"/>
<path d="M5.46011 14.8351L1.16479 10.5397" stroke="#3B3B3B" stroke-width="1.5" stroke-linecap="round" stroke-linejoin="round"/>
</svg>
