<svg width="18" height="18" viewBox="0 0 18 18" fill="none" xmlns="http://www.w3.org/2000/svg">
<path d="M3.08602 6.15622C3.22664 5.85934 3.3907 5.57809 3.5782 5.30465L3.54695 3.2734C3.54695 3.0859 3.62508 2.90622 3.77352 2.78122C4.50008 2.17184 5.3282 1.67965 6.24227 1.35153C6.42195 1.28903 6.61727 1.30465 6.77352 1.40622L8.5157 2.45309C8.84383 2.42965 9.17195 2.42965 9.50008 2.45309L11.2423 1.40622C11.4063 1.31247 11.6016 1.28903 11.7813 1.35153C12.672 1.67184 13.5079 2.1484 14.2501 2.7734C14.3907 2.89059 14.4766 3.07809 14.4688 3.26559L14.4376 5.29684C14.6251 5.57028 14.7891 5.85153 14.9298 6.1484L16.7032 7.13278C16.8673 7.22653 16.9845 7.38278 17.0157 7.57028C17.1798 8.49997 17.1876 9.46872 17.0157 10.414C16.9845 10.6015 16.8673 10.7578 16.7032 10.8515L14.9298 11.8359C14.7891 12.1328 14.6251 12.414 14.4376 12.6875L14.4688 14.7187C14.4688 14.9062 14.3907 15.0859 14.2423 15.2109C13.5157 15.8203 12.6876 16.3125 11.7735 16.6406C11.5938 16.7031 11.3985 16.6875 11.2423 16.5859L9.50008 15.539C9.17195 15.5625 8.84383 15.5625 8.5157 15.539L6.77352 16.5859C6.60945 16.6797 6.41414 16.7031 6.23445 16.6406C5.34383 16.3203 4.50789 15.8437 3.7657 15.2187C3.62508 15.1015 3.53914 14.914 3.54695 14.7265L3.5782 12.6953C3.3907 12.4218 3.22664 12.1406 3.08602 11.8437L1.31258 10.8593C1.14852 10.7656 1.03133 10.6093 1.00008 10.4218C0.836016 9.49215 0.828203 8.5234 1.00008 7.57809C1.03133 7.39059 1.14852 7.23434 1.31258 7.14059L3.08602 6.15622Z" stroke="white" stroke-opacity="0.95" stroke-width="1.5" stroke-miterlimit="10" stroke-linecap="round" stroke-linejoin="round"/>
<path d="M9 12.75C11.0711 12.75 12.75 11.0711 12.75 9C12.75 6.92893 11.0711 5.25 9 5.25C6.92893 5.25 5.25 6.92893 5.25 9C5.25 11.0711 6.92893 12.75 9 12.75Z" stroke="white" stroke-opacity="0.95" stroke-width="1.5" stroke-miterlimit="10" stroke-linecap="round" stroke-linejoin="round"/>
</svg>
